<?xml version="1.0" encoding="utf-8"?>
<!-- Generator: Adobe Illustrator 15.1.0, SVG Export Plug-In . SVG Version: 6.00 Build 0)  -->
<!DOCTYPE svg PUBLIC "-//W3C//DTD SVG 1.1//EN" "http://www.w3.org/Graphics/SVG/1.1/DTD/svg11.dtd">
<svg version="1.1" id="Capa_1" xmlns="http://www.w3.org/2000/svg" xmlns:xlink="http://www.w3.org/1999/xlink" x="0px" y="0px"
	 width="500px" height="234.482px" viewBox="0 0 500 234.482" enable-background="new 0 0 500 234.482" xml:space="preserve">
<g>
	<path fill="#2E2E54" d="M214.254,82.391c0-0.858,0.771-1.631,1.627-1.631h2.654c0.856,0,1.627,0.771,1.627,1.631v24.138
		c0,0,3.512-2.229,9.166-2.229c10.276,0,17.972,5.965,17.972,17.9c0,11.251-8.38,18.069-17.117,18.069
		c-6.422,0-10.532-4.542-10.532-4.542l-0.515,2.315c-0.172,0.77-0.684,1.372-1.455,1.372h-1.799c-0.856,0-1.627-0.772-1.627-1.631
		L214.254,82.391L214.254,82.391z M229.583,134.875c6.251,0,11.72-4.501,11.72-12.593c0-8.453-4.139-12.462-11.59-12.462
		c-4.711,0-9.466,2.274-9.466,2.274v17.126C220.248,129.222,223.417,134.875,229.583,134.875z"/>
	<path fill="#2E2E54" d="M253.967,106.75c0-0.854,0.771-1.626,1.627-1.626h1.627c0.688,0,1.285,0.426,1.455,1.198l0.688,2.483
		c0,0,3.17-4.539,10.275-4.539c2.571,0,6.854,0.429,5.995,2.826l-1.026,2.911c-0.43,1.113-1.197,1.113-2.058,0.771
		c-0.768-0.345-2.053-0.685-3.337-0.685c-6.511,0-9.336,4.795-9.336,4.795v22.868c0,0.856-0.771,1.626-1.627,1.626h-2.656
		c-0.855,0-1.627-0.77-1.627-1.626V106.75z"/>
	<path fill="#2E2E54" d="M293.425,104.3c8.994,0,15.504,6.68,15.504,15.672c0,0.599-0.088,1.713-0.172,2.312
		c-0.086,0.857-0.771,1.458-1.541,1.458h-24.667c0.342,5.735,5.395,11.135,11.477,11.135c3.597,0,6.511-1.372,8.479-2.571
		c1.2-0.685,1.713-1.111,2.398-0.17c0.513,0.684,0.94,1.283,1.455,1.968c0.601,0.773,0.942,1.286-0.342,2.229
		c-2.056,1.628-6.681,3.938-12.591,3.938c-10.362,0-16.786-8.137-16.786-17.987C276.639,112.606,283.063,104.3,293.425,104.3z
		 M303.018,118.945c-0.257-4.967-4.367-9.421-9.593-9.421c-5.737,0-10.188,4.113-10.79,9.421H303.018z"/>
	<path fill="#2E2E54" d="M347.131,137.786c0,0.857-0.77,1.631-1.627,1.631h-1.797c-0.771,0-1.285-0.604-1.457-1.372l-0.514-2.315
		c0,0-4.111,4.542-10.533,4.542c-8.737,0-17.115-6.818-17.115-18.069c0-11.937,7.693-17.9,17.973-17.9
		c5.65,0,9.164,2.229,9.164,2.229V82.391c0-0.858,0.77-1.631,1.627-1.631h2.652c0.858,0,1.627,0.771,1.627,1.631V137.786
		L347.131,137.786z M341.137,129.222v-17.126c0,0-4.753-2.273-9.464-2.273c-7.452,0-11.592,4.008-11.592,12.461
		c0,8.092,5.471,12.593,11.721,12.593C337.969,134.875,341.137,129.222,341.137,129.222z"/>
	<path fill="#2E2E54" d="M369.9,104.3c8.994,0,15.505,6.68,15.505,15.672c0,0.599-0.087,1.713-0.173,2.312
		c-0.086,0.857-0.771,1.458-1.541,1.458h-24.666c0.342,5.735,5.395,11.135,11.477,11.135c3.598,0,6.512-1.372,8.479-2.571
		c1.199-0.685,1.713-1.111,2.397-0.17c0.515,0.684,0.942,1.283,1.457,1.968c0.599,0.773,0.942,1.286-0.343,2.229
		c-2.057,1.628-6.682,3.938-12.592,3.938c-10.362,0-16.786-8.137-16.786-17.987C353.115,112.606,359.539,104.3,369.9,104.3z
		 M379.496,118.945c-0.26-4.967-4.369-9.421-9.596-9.421c-5.734,0-10.188,4.113-10.789,9.421H379.496z"/>
	<path fill="#2E2E54" d="M407.377,104.3c5.141,0,9.164,2.054,12.248,5.994c0.602,0.771,0.428,1.802-0.345,2.397l-1.628,1.371
		c-1.281,1.197-1.711,0.34-2.48-0.341c-1.713-1.972-4.541-3.602-7.881-3.602c-6.422,0-11.391,5.313-11.391,12.161
		c0,6.853,4.883,12.334,11.305,12.334c5.14,0,7.109-2.567,9.08-4.45c1.027-1.031,1.627-0.858,2.568-0.174l0.942,0.685
		c0.856,0.602,1.113,1.541,0.599,2.4c-2.568,4.108-7.279,7.192-13.104,7.192c-9.506,0-17.557-7.62-17.557-17.899
		C389.734,112.265,398.044,104.3,407.377,104.3z"/>
	<g>
		<g>
			<path fill="#2E2E54" d="M151.376,164.334h-39.597c-4.146,0-9.018-2.81-11.091-6.403l-19.793-34.287
				c-2.073-3.59-2.073-9.215,0-12.807l19.793-34.287c2.073-3.591,6.945-6.401,11.091-6.401h39.597c4.146,0,9.018,2.812,11.091,6.401
				l19.793,34.287c2.073,3.592,2.073,9.22-0.002,12.807l-19.789,34.287C160.394,161.526,155.521,164.334,151.376,164.334z
				 M111.779,75.337c-2.3,0-5.444,1.813-6.594,3.807l-19.793,34.29c-1.152,1.994-1.152,5.622,0,7.614l19.793,34.287
				c1.15,1.996,4.293,3.812,6.594,3.812h39.597c2.3,0,5.446-1.814,6.598-3.812l19.789-34.287c1.152-1.992,1.152-5.62,0.002-7.614
				l-19.793-34.29c-1.152-1.992-4.296-3.807-6.596-3.807H111.779z"/>
		</g>
		<g>
			<g>
				<g>
					<path fill="#00DECE" d="M150.462,82.579c-0.369-0.164-0.836-0.012-1.038,0.338l-38.612,66.876
						c-0.201,0.348-0.108,0.843,0.209,1.095l1.671,1.016c0.369,0.165,0.836,0.014,1.04-0.337l38.61-66.874
						c0.201-0.35,0.11-0.847-0.205-1.096L150.462,82.579z"/>
				</g>
			</g>
			<g>
				<g>
					<path fill="#00DECE" d="M170.792,116.265c-0.051-0.403-0.422-0.728-0.828-0.728H93.191c-0.406,0-0.777,0.323-0.828,0.728
						l-0.002,1.953c0.051,0.402,0.424,0.732,0.83,0.732h76.775c0.404,0,0.777-0.33,0.828-0.732L170.792,116.265z"/>
				</g>
			</g>
			<g>
				<path fill="#00DECE" d="M111.021,83.596c-0.318,0.249-0.411,0.739-0.208,1.096l38.61,66.874
					c0.201,0.351,0.669,0.502,1.038,0.337l1.673-1.016c0.318-0.252,0.409-0.747,0.208-1.095l-38.608-66.876
					c-0.201-0.35-0.671-0.502-1.04-0.338L111.021,83.596z"/>
			</g>
		</g>
	</g>
</g>
</svg>
